<svg width="20" height="20" viewBox="0 0 20 20" xmlns="http://www.w3.org/2000/svg">
<style type="text/css">
	.cf-icon-color{stroke:#33CC99 !important;}
</style>
<path class="cf-icon-color" fill="#33CC99" d="M6.2,18c0.5,0,1,0.4,1,1s-0.4,1-1,1s-1-0.4-1-1S5.7,18,6.2,18z"/>
<path class="cf-icon-color" fill="#33CC99" d="M9.6,18c0.5,0,1,0.4,1,1s-0.4,1-1,1c-0.6,0-1-0.4-1-1S9,18,9.6,18z"/>
<path class="cf-icon-color" fill="#33CC99" d="M13,18c0.5,0,1,0.4,1,1s-0.4,1-1,1c-0.6,0-1-0.4-1-1S12.4,18,13,18z"/>
<rect x="0.5" y="0.5" fill="none" stroke="#444444" width="18.2" height="14.8"/>
<line fill="none" stroke="#444444" x1="9.6" y1="15.3" x2="9.6" y2="0.5"/>
<polyline fill="none" stroke="#444444" points="2.1,6.3 4.6,3.6 7.9,7.2 "/>
<polyline fill="none" stroke="#444444" points="11.2,6.3 13.7,3.6 17,7.2 "/>
<rect x="2.1" y="9.8" fill="#444444" width="5.7" height="1"/>
<rect x="2.8" y="11.8" fill="#444444" width="4.5" height="1"/>
<rect x="11.3" y="9.8" fill="#444444" width="5.7" height="1"/>
<rect x="11.9" y="11.8" fill="#444444" width="4.5" height="1"/>
</svg>
